HIERARCHY
ROOT Hips
{
  OFFSET 377.763 88.2609 174.383
  CHANNELS 6 Xposition Yposition Zposition Zrotation Xrotation Yrotation
  JOINT RightUpLeg
  {
    OFFSET -9.30536 -1.56319 -0.0308412
    CHANNELS 3 Zrotation Xrotation Yrotation
    JOINT RightLeg
    {
      OFFSET -0.0509473 -41.8867 0.0408735
      CHANNELS 3 Zrotation Xrotation Yrotation
      JOINT RightFoot
      {
        OFFSET -0.135761 -42.7852 -0.897951
        CHANNELS 3 Zrotation Xrotation Yrotation
        End Site
        {
          OFFSET 0 -7.69 17.5
        }
      }
    }
  }
  JOINT LeftUpLeg
  {
    OFFSET 9.25165 -1.62789 -0.00729124
    CHANNELS 3 Zrotation Xrotation Yrotation
    JOINT LeftLeg
    {
      OFFSET 0.024936 -41.8804 0.00207043
      CHANNELS 3 Zrotation Xrotation Yrotation
      JOINT LeftFoot
      {
        OFFSET 0.245063 -40.7505 0.529473
        CHANNELS 3 Zrotation Xrotation Yrotation
        End Site
        {
          OFFSET 0 -7.69 17.5
        }
      }
    }
  }
  JOINT Spine
  {
    OFFSET 0.0381636 14.2969 0.0214663
    CHANNELS 3 Zrotation Xrotation Yrotation
    JOINT Spine1
    {
      OFFSET 0.0273681 9.71499 0.0100001
      CHANNELS 3 Zrotation Xrotation Yrotation
      JOINT Spine2
      {
        OFFSET 0.029022 10.1215 -0.000399631
        CHANNELS 3 Zrotation Xrotation Yrotation
        JOINT Spine3
        {
          OFFSET 0.0290531 9.71322 0.0107928
          CHANNELS 3 Zrotation Xrotation Yrotation
          JOINT Neck
          {
            OFFSET 0.0830829 10.3832 0.0498053
            CHANNELS 3 Zrotation Xrotation Yrotation
            JOINT Head
            {
              OFFSET 0.0700972 9.47827 0.0499309
              CHANNELS 3 Zrotation Xrotation Yrotation
              End Site
              {
                OFFSET 0 15.95 0
              }
            }
          }
          JOINT RightShoulder
          {
            OFFSET -3.16088 6.93633 0.0290789
            CHANNELS 3 Zrotation Xrotation Yrotation
            JOINT RightArm
            {
              OFFSET -12.7509 0.028765 0.0682708
              CHANNELS 3 Zrotation Xrotation Yrotation
              JOINT RightForeArm
              {
                OFFSET -26.5067 -0.0728143 0.13822
                CHANNELS 3 Zrotation Xrotation Yrotation
                JOINT RightHand
                {
                  OFFSET -25.9897 -0.0664148 0.00141744
                  CHANNELS 3 Zrotation Xrotation Yrotation
                  JOINT RightHandThumb1
                  {
                    OFFSET -2.48905 0.190105 3.12053
                    CHANNELS 3 Zrotation Xrotation Yrotation
                    JOINT RightHandThumb2
                    {
                      OFFSET -3.68274 0 0
                      CHANNELS 3 Zrotation Xrotation Yrotation
                      JOINT RightHandThumb3
                      {
                        OFFSET -2.55832 0 0
                        CHANNELS 3 Zrotation Xrotation Yrotation
                        End Site
                        {
                          OFFSET -2.194 0 0
                        }
                      }
                    }
                  }
                  JOINT RightInHandIndex
                  {
                    OFFSET -3.22368 0.508421 1.97842
                    CHANNELS 3 Zrotation Xrotation Yrotation
                    JOINT RightHandIndex1
                    {
                      OFFSET -5.21684 -0.091368 0.999158
                      CHANNELS 3 Zrotation Xrotation Yrotation
                      JOINT RightHandIndex2
                      {
                        OFFSET -3.61937 0 0
                        CHANNELS 3 Zrotation Xrotation Yrotation
                        JOINT RightHandIndex3
                        {
                          OFFSET -2.0521 0 0
                          CHANNELS 3 Zrotation Xrotation Yrotation
                          End Site
                          {
                            OFFSET -1.805 0 0
                          }
                        }
                      }
                    }
                  }
                  JOINT RightInHandMiddle
                  {
                    OFFSET -3.38211 0.517263 0.756737
                    CHANNELS 3 Zrotation Xrotation Yrotation
                    JOINT RightHandMiddle1
                    {
                      OFFSET -5.17411 -0.084 0.313895
                      CHANNELS 3 Zrotation Xrotation Yrotation
                      JOINT RightHandMiddle2
                      {
                        OFFSET -3.94947 0 0
                        CHANNELS 3 Zrotation Xrotation Yrotation
                        JOINT RightHandMiddle3
                        {
                          OFFSET -2.47579 0 0
                          CHANNELS 3 Zrotation Xrotation Yrotation
                          End Site
                          {
                            OFFSET -1.975 0 0
                          }
                        }
                      }
                    }
                  }
                  JOINT RightInHandRing
                  {
                    OFFSET -3.36516 0.537895 -0.128947
                    CHANNELS 3 Zrotation Xrotation Yrotation
                    JOINT RightHandRing1
                    {
                      OFFSET -4.63474 -0.022105 -0.478947
                      CHANNELS 3 Zrotation Xrotation Yrotation
                      JOINT RightHandRing2
                      {
                        OFFSET -3.44238 0 0
                        CHANNELS 3 Zrotation Xrotation Yrotation
                        JOINT RightHandRing3
                        {
                          OFFSET -2.3881 0 0
                          CHANNELS 3 Zrotation Xrotation Yrotation
                          End Site
                          {
                            OFFSET -1.857 0 0
                          }
                        }
                      }
                    }
                  }
                  JOINT RightInHandPinky
                  {
                    OFFSET -3.16105 0.469368 -1.20179
                    CHANNELS 3 Zrotation Xrotation Yrotation
                    JOINT RightHandPinky1
                    {
                      OFFSET -4.14105 -0.022105 -1.09053
                      CHANNELS 3 Zrotation Xrotation Yrotation
                      JOINT RightHandPinky2
                      {
                        OFFSET -2.75653 0 0
                        CHANNELS 3 Zrotation Xrotation Yrotation
                        JOINT RightHandPinky3
                        {
                          OFFSET -1.74189 0 0
                          CHANNELS 3 Zrotation Xrotation Yrotation
                          End Site
                          {
                            OFFSET -1.645 0 0
                          }
                        }
                      }
                    }
                  }
                }
              }
            }
          }
          JOINT LeftShoulder
          {
            OFFSET 3.23403 6.91572 -0.0126821
            CHANNELS 3 Zrotation Xrotation Yrotation
            JOINT LeftArm
            {
              OFFSET 12.8488 -0.0444641 -0.0528339
              CHANNELS 3 Zrotation Xrotation Yrotation
              JOINT LeftForeArm
              {
                OFFSET 26.4942 -0.0237746 -0.09002
                CHANNELS 3 Zrotation Xrotation Yrotation
                JOINT LeftHand
                {
                  OFFSET 25.9989 -0.00653758 -0.026747
                  CHANNELS 3 Zrotation Xrotation Yrotation
                  JOINT LeftHandThumb1
                  {
                    OFFSET 2.48905 0.190105 3.12053
                    CHANNELS 3 Zrotation Xrotation Yrotation
                    JOINT LeftHandThumb2
                    {
                      OFFSET 3.68274 0 0
                      CHANNELS 3 Zrotation Xrotation Yrotation
                      JOINT LeftHandThumb3
                      {
                        OFFSET 2.55832 0 0
                        CHANNELS 3 Zrotation Xrotation Yrotation
                        End Site
                        {
                          OFFSET 2.194 0 0
                        }
                      }
                    }
                  }
                  JOINT LeftInHandIndex
                  {
                    OFFSET 3.22368 0.508421 1.97842
                    CHANNELS 3 Zrotation Xrotation Yrotation
                    JOINT LeftHandIndex1
                    {
                      OFFSET 5.21684 -0.091368 0.999158
                      CHANNELS 3 Zrotation Xrotation Yrotation
                      JOINT LeftHandIndex2
                      {
                        OFFSET 3.61937 0 0
                        CHANNELS 3 Zrotation Xrotation Yrotation
                        JOINT LeftHandIndex3
                        {
                          OFFSET 2.0521 0 0
                          CHANNELS 3 Zrotation Xrotation Yrotation
                          End Site
                          {
                            OFFSET 1.805 0 0
                          }
                        }
                      }
                    }
                  }
                  JOINT LeftInHandMiddle
                  {
                    OFFSET 3.38211 0.517263 0.756737
                    CHANNELS 3 Zrotation Xrotation Yrotation
                    JOINT LeftHandMiddle1
                    {
                      OFFSET 5.17411 -0.084 0.313895
                      CHANNELS 3 Zrotation Xrotation Yrotation
                      JOINT LeftHandMiddle2
                      {
                        OFFSET 3.94947 0 0
                        CHANNELS 3 Zrotation Xrotation Yrotation
                        JOINT LeftHandMiddle3
                        {
                          OFFSET 2.47579 0 0
                          CHANNELS 3 Zrotation Xrotation Yrotation
                          End Site
                          {
                            OFFSET 1.975 0 0
                          }
                        }
                      }
                    }
                  }
                  JOINT LeftInHandRing
                  {
                    OFFSET 3.36516 0.537895 -0.128947
                    CHANNELS 3 Zrotation Xrotation Yrotation
                    JOINT LeftHandRing1
                    {
                      OFFSET 4.63474 -0.022105 -0.478947
                      CHANNELS 3 Zrotation Xrotation Yrotation
                      JOINT LeftHandRing2
                      {
                        OFFSET 3.44238 0 0
                        CHANNELS 3 Zrotation Xrotation Yrotation
                        JOINT LeftHandRing3
                        {
                          OFFSET 2.3881 0 0
                          CHANNELS 3 Zrotation Xrotation Yrotation
                          End Site
                          {
                            OFFSET 1.857 0 0
                          }
                        }
                      }
                    }
                  }
                  JOINT LeftInHandPinky
                  {
                    OFFSET 3.16105 0.469368 -1.20179
                    CHANNELS 3 Zrotation Xrotation Yrotation
                    JOINT LeftHandPinky1
                    {
                      OFFSET 4.14105 -0.022105 -1.09053
                      CHANNELS 3 Zrotation Xrotation Yrotation
                      JOINT LeftHandPinky2
                      {
                        OFFSET 2.75653 0 0
                        CHANNELS 3 Zrotation Xrotation Yrotation
                        JOINT LeftHandPinky3
                        {
                          OFFSET 1.74189 0 0
                          CHANNELS 3 Zrotation Xrotation Yrotation
                          End Site
                          {
                            OFFSET 1.645 0 0
                          }
                        }
                      }
                    }
                  }
                }
              }
            }
          }
        }
      }
    }
  }
}
MOTION
Frames: 3
Frame Time: 0.00833333
1.500003183439604584e+02 1.666344865739376126e-04 1.148053914637798924e-05 -2.131525762898580680e-03 -2.986040962991869108e-03 -6.134319884163848963e-02 3.977000117260119649e-02 5.640628979442953439e-02 9.239696934968538722e-02 -1.470434635859223758e-02 -1.483428129400806740e-02 -9.428851548389316495e-02 -7.299636979022485449e-03 5.266093348944500367e-03 6.652740869870764351e-02 1.620832719990685650e-02 4.727087261565351972e-02 5.744694132080657017e-02 -8.575322659067331765e-03 2.949867606628138027e-03 -2.967759690814698870e-02 3.397108737121235390e-03 3.167961482160037544e-03 1.255185730660787931e-02 1.878959231294815473e-03 -4.457799482077803160e-03 3.247292721395088344e-02 2.847614923936232908e-04 -1.299005453082763034e-04 8.224226141630241668e-03 5.008301164505012202e-04 -1.401233587014859023e-03 1.314332719602617425e-02 1.020215074339899866e-04 1.822751185215293953e-04 1.172050981046710613e-05 -2.432495150824252406e-04 4.215128436672009593e-03 5.514160312008736277e-03 6.819694812367814787e-04 2.838320774724691596e-03 4.977131664831575299e-03 4.397429203563330696e-03 4.339763036447145603e-03 -3.334674581133842408e-02 5.490460839221297795e-02 5.380914472560091415e-03 6.266797402138782336e-02 -4.007498703676863269e-03 3.601537669935747643e-04 -5.276999382325796989e-03 1.017029560214937622e-01 -2.045605346837050253e-01 2.514397563918748801e-01 0.000000000000000000e+00 0.000000000000000000e+00 0.000000000000000000e+00 4.513766696396420850e-15 -2.205680318089790102e-16 0.000000000000000000e+00 -1.721348373653296848e-15 1.160999341773830711e-15 0.000000000000000000e+00 8.346988172820059317e-16 -1.031496801552990369e-17 -1.755248008564006259e-16 0.000000000000000000e+00 0.000000000000000000e+00 0.000000000000000000e+00 0.000000000000000000e+00 1.434690929090104440e-15 -2.707004578550755204e-16 0.000000000000000000e+00 6.423433855466376962e-16 -1.340802843196712580e-15 8.346988172820059317e-16 -1.031496801552990369e-17 -1.755248008564006259e-16 0.000000000000000000e+00 -1.938973124368343552e-15 6.475960457144521267e-17 0.000000000000000000e+00 -4.632255344877808313e-16 1.955294956108964599e-16 0.000000000000000000e+00 2.122656416902866331e-16 1.103971723445284879e-15 8.346988172820059317e-16 -1.031496801552990369e-17 -1.755248008564006259e-16 0.000000000000000000e+00 0.000000000000000000e+00 0.000000000000000000e+00 0.000000000000000000e+00 -5.349827072065905804e-17 -4.795599584403208721e-17 0.000000000000000000e+00 3.151874000137259576e-16 -4.086568288542635459e-16 8.346988172820059317e-16 -1.031496801552990369e-17 -1.755248008564006259e-16 0.000000000000000000e+00 0.000000000000000000e+00 0.000000000000000000e+00 0.000000000000000000e+00 -1.628622138782537589e-15 1.237308831313914099e-15 0.000000000000000000e+00 1.646478089165664747e-16 -7.528962363009404751e-17 2.115677374232401088e-04 7.417718580803751675e-03 9.277168934343281263e-04 1.679326007659603937e-03 3.867168022659949692e-03 -4.714626026013790487e-03 -3.454469203895609540e-03 3.669151108016657954e-03 5.217178888704376849e-03 -3.145777177288019977e-03 6.443875997082216221e-04 -1.703852576874021808e-04 0.000000000000000000e+00 0.000000000000000000e+00 0.000000000000000000e+00 -3.988470846347616359e-16 1.617508741392010995e-16 0.000000000000000000e+00 -2.623104147295173852e-15 1.198930851973895432e-15 0.000000000000000000e+00 3.498487200430711041e-17 -3.924140787266948851e-16 5.333659659340933178e-16 0.000000000000000000e+00 0.000000000000000000e+00 0.000000000000000000e+00 0.000000000000000000e+00 -8.843795006640230525e-17 -3.844257011519501133e-16 0.000000000000000000e+00 3.199570093363890774e-16 -1.727050244285775478e-15 3.498487200430711041e-17 -3.924140787266948851e-16 5.333659659340933178e-16 0.000000000000000000e+00 -4.024089167609355084e-16 9.008031669532965017e-17 0.000000000000000000e+00 4.921594312295672187e-16 7.939740159697787865e-16 0.000000000000000000e+00 -7.552351070641383900e-16 -1.294149853538182922e-15 3.498487200430711041e-17 -3.924140787266948851e-16 5.333659659340933178e-16 0.000000000000000000e+00 0.000000000000000000e+00 0.000000000000000000e+00 0.000000000000000000e+00 -1.719284579456376049e-17 -6.621142828345113815e-16 0.000000000000000000e+00 4.262552353391249610e-16 4.386756112239583331e-16 3.498487200430711041e-17 -3.924140787266948851e-16 5.333659659340933178e-16 0.000000000000000000e+00 0.000000000000000000e+00 0.000000000000000000e+00 0.000000000000000000e+00 -1.639837866575126387e-16 1.537853809013972370e-16 0.000000000000000000e+00 -5.223228728335533177e-16 -2.975800109068637424e-16
1.500005803170512593e+02 1.535357578473278174e-03 -1.042569650182904612e-03 1.783911028342754796e-03 1.848779241477794622e-03 5.420860150976033326e-02 -4.648883206459980544e-02 -6.011904382808639508e-02 -1.385283137410711074e-01 1.637300652690916458e-02 1.742665349762360927e-02 1.248635703875060204e-01 1.736294249317673830e-02 -1.282374440979762269e-02 -5.723836773478632733e-02 -1.799171060357849031e-02 -5.245572974005819483e-02 -9.315071460800943004e-02 -1.852480673037334297e-02 -1.768830469994463889e-02 7.953716160013948877e-02 -6.785779629547105882e-03 -2.892038828857200310e-03 -1.464456248202795907e-02 -4.743783562238382268e-03 3.043394338515912397e-03 -2.864933802790424131e-02 -8.259068338009958616e-04 1.219727463229009932e-03 -6.832925967085960901e-03 -1.681943171804868922e-03 5.830856104963332877e-04 -1.085157342207164304e-02 8.132714235753981449e-06 -6.103139904927206620e-05 -5.760898535927749743e-05 -4.404615039963905845e-04 3.368192160190909903e-04 -4.786566397544683715e-03 3.638863405244251344e-03 -6.037990295490344023e-03 -3.270353447221697324e-03 -1.265761087907391926e-02 -8.356679272036629871e-03 4.917201245273642579e-02 -2.376518681690666102e-02 1.849927280720299345e-03 -1.311763995438440175e-02 -1.827431065184800113e-02 -4.032600127649995508e-02 -1.075145604072283607e-02 -7.337693817706893162e-02 1.394356696839970655e-01 -1.691943738864127578e-01 0.000000000000000000e+00 0.000000000000000000e+00 0.000000000000000000e+00 -3.960947521467294945e-15 7.824209611837816606e-15 0.000000000000000000e+00 -4.306249784170355135e-15 2.600289374395453694e-15 0.000000000000000000e+00 -8.055080891596548733e-16 -1.593150077796826319e-15 -3.572835203201248009e-16 0.000000000000000000e+00 0.000000000000000000e+00 0.000000000000000000e+00 0.000000000000000000e+00 -6.502653571812140717e-16 4.078723503107100155e-15 0.000000000000000000e+00 -1.506776475524746769e-15 4.125966656305308497e-15 -8.055080891596548733e-16 -1.593150077796826319e-15 -3.572835203201248009e-16 0.000000000000000000e+00 -2.340877971828425216e-15 8.631050813058150991e-16 0.000000000000000000e+00 -4.112694880972515699e-15 1.581676870837330755e-15 0.000000000000000000e+00 -4.375751150695909373e-16 2.939627591059578684e-15 -8.055080891596548733e-16 -1.593150077796826319e-15 -3.572835203201248009e-16 0.000000000000000000e+00 0.000000000000000000e+00 0.000000000000000000e+00 0.000000000000000000e+00 -2.142310021960301495e-15 -1.820736344398415016e-15 0.000000000000000000e+00 1.454734144591940119e-15 1.600825399448344108e-15 -8.055080891596548733e-16 -1.593150077796826319e-15 -3.572835203201248009e-16 0.000000000000000000e+00 0.000000000000000000e+00 0.000000000000000000e+00 0.000000000000000000e+00 1.730831485243121303e-15 1.533099256568775575e-16 0.000000000000000000e+00 3.919912093131073980e-15 2.297855158275551554e-15 7.186026822148580857e-03 -9.402225350273071131e-03 1.767988865551694622e-03 -7.612785539390781557e-03 -4.241252844759182787e-03 1.131854303802490823e-02 -2.513980724917445810e-03 -1.178104249536934822e-02 -1.467476190338594215e-02 5.145387568499732930e-03 2.181010831480065942e-03 1.032810960873007354e-02 0.000000000000000000e+00 0.000000000000000000e+00 0.000000000000000000e+00 7.350919399193071470e-16 2.639804842514172119e-16 0.000000000000000000e+00 2.567158272053398235e-15 -5.257922744083236492e-16 0.000000000000000000e+00 -7.464904298159587003e-16 -7.302541126133164501e-16 -8.659545007936747102e-16 0.000000000000000000e+00 0.000000000000000000e+00 0.000000000000000000e+00 0.000000000000000000e+00 5.896535003538021317e-16 -7.074994831208783528e-16 0.000000000000000000e+00 5.680820689728980481e-16 7.327900003189574886e-16 -7.464904298159587003e-16 -7.302541126133164501e-16 -8.659545007936747102e-16 0.000000000000000000e+00 -8.425537026798241745e-16 1.605907749509441382e-16 0.000000000000000000e+00 8.297976980401986995e-17 -3.521924075032334621e-16 0.000000000000000000e+00 8.108217648009770320e-17 3.005915198923676424e-15 -7.464904298159587003e-16 -7.302541126133164501e-16 -8.659545007936747102e-16 0.000000000000000000e+00 0.000000000000000000e+00 0.000000000000000000e+00 0.000000000000000000e+00 3.007532272666073924e-15 5.170898808766305644e-16 0.000000000000000000e+00 -8.399768876672409398e-16 -1.825993026288952732e-15 -7.464904298159587003e-16 -7.302541126133164501e-16 -8.659545007936747102e-16 0.000000000000000000e+00 0.000000000000000000e+00 0.000000000000000000e+00 0.000000000000000000e+00 2.164494089781265681e-15 -7.200758168258344628e-16 0.000000000000000000e+00 2.401272882027505787e-15 2.378435555016057324e-15
1.499995912053984739e+02 -7.175078728127402003e-04 -1.109328722783243550e-03 9.339518984326802137e-03 1.050913332059535618e-02 3.724446842010148417e-02 -1.915034151347929856e-02 -4.549661985734466257e-02 -7.423038431352231570e-02 1.478511289775474337e-02 1.389713020137235862e-02 7.144839127298531489e-02 -2.177363540526962467e-03 1.852573681474678057e-03 -3.709072635938227835e-02 -1.524531742678317259e-03 -1.148890477391609211e-02 -9.521405595343481257e-03 3.231268283052722567e-02 -2.406308688547562080e-02 2.841814536878401257e-02 -1.475256327569474460e-02 -1.660058887577229789e-02 -4.180426565135678119e-02 6.286668029904257486e-03 7.426073016424115589e-03 -8.405442070055543780e-03 1.523956486218939381e-03 5.537097821102652173e-04 -2.428442872828232273e-03 2.499502195709308369e-03 3.497007922022197634e-03 -3.979155268856519358e-03 -6.510685013260790195e-05 -8.861527044267087727e-04 -2.226852585563295311e-04 1.780862573070182697e-03 -1.593049384890372205e-02 -1.584207466233833461e-02 -9.857500659437993303e-04 -1.315036315342085933e-02 -1.660201619122281952e-02 -2.777393264577415755e-02 -2.346565114838154373e-02 1.026836995822035387e-01 -1.825303285731623426e-01 -2.048602383391792681e-02 -2.098819773168464076e-01 2.330401448429900504e-02 -5.299415668840120469e-03 -3.862735449404520929e-03 -1.008634702955960166e-01 2.141430987341738090e-01 -2.315470067662554476e-01 0.000000000000000000e+00 0.000000000000000000e+00 0.000000000000000000e+00 -2.232802167267707598e-15 -2.965297998341278593e-15 0.000000000000000000e+00 5.329038816982549971e-15 -2.331216407532521875e-15 0.000000000000000000e+00 -1.993814039009351248e-15 7.598115341673280621e-16 1.148982117500008282e-16 0.000000000000000000e+00 0.000000000000000000e+00 0.000000000000000000e+00 0.000000000000000000e+00 -2.122907328052677631e-15 -6.080748256691091646e-17 0.000000000000000000e+00 -4.098784690428687486e-16 2.208219685764665234e-16 -1.993814039009351248e-15 7.598115341673280621e-16 1.148982117500008282e-16 0.000000000000000000e+00 2.220969134030483277e-15 -1.712706490091977551e-16 0.000000000000000000e+00 1.629749538351855384e-15 -9.085230955845067384e-16 0.000000000000000000e+00 4.051494730330306835e-16 -1.680314478040850201e-15 -1.993814039009351248e-15 7.598115341673280621e-16 1.148982117500008282e-16 0.000000000000000000e+00 0.000000000000000000e+00 0.000000000000000000e+00 0.000000000000000000e+00 7.056961134864574658e-16 2.677440226192445138e-16 0.000000000000000000e+00 -1.118202697995483154e-15 -1.011548116476968282e-16 -1.993814039009351248e-15 7.598115341673280621e-16 1.148982117500008282e-16 0.000000000000000000e+00 0.000000000000000000e+00 0.000000000000000000e+00 0.000000000000000000e+00 1.256567601760474517e-15 -5.206217826628515990e-16 0.000000000000000000e+00 -1.994332998909915377e-15 1.486988301886535897e-16 2.226802062764926451e-03 -2.204138725261078902e-02 -1.031377103756470071e-02 -8.418503745872508645e-03 -1.574250608685145644e-02 -2.397218842518808631e-03 1.597533505260152059e-02 -1.567023456313396644e-03 5.690615479129758000e-03 1.407217296796747438e-02 -5.242180187373393641e-03 1.686458972449397450e-02 0.000000000000000000e+00 0.000000000000000000e+00 0.000000000000000000e+00 -2.332062353742947134e-16 -2.700104330041150972e-16 0.000000000000000000e+00 7.229503274566300875e-16 -6.192258653524443773e-16 0.000000000000000000e+00 -4.426264058347576338e-16 9.773262743806650345e-16 -4.403863691053880561e-16 0.000000000000000000e+00 0.000000000000000000e+00 0.000000000000000000e+00 0.000000000000000000e+00 -1.895612508137008429e-16 9.189578729535976196e-16 0.000000000000000000e+00 -6.045874702055482509e-16 1.670576852999216617e-15 -4.426264058347576338e-16 9.773262743806650345e-16 -4.403863691053880561e-16 0.000000000000000000e+00 -1.690975988056956162e-16 -7.359169679792257658e-17 0.000000000000000000e+00 -8.969414424502521368e-16 -4.127408016611396420e-16 0.000000000000000000e+00 4.546040538624218407e-16 1.096207158701622353e-15 -4.426264058347576338e-16 9.773262743806650345e-16 -4.403863691053880561e-16 0.000000000000000000e+00 0.000000000000000000e+00 0.000000000000000000e+00 0.000000000000000000e+00 -1.497281662985028605e-15 4.464299343362971534e-16 0.000000000000000000e+00 -3.482342634613361343e-16 3.840371877788272632e-16 -4.426264058347576338e-16 9.773262743806650345e-16 -4.403863691053880561e-16 0.000000000000000000e+00 0.000000000000000000e+00 0.000000000000000000e+00 0.000000000000000000e+00 -2.978017030588071414e-16 6.839456250548281004e-17 0.000000000000000000e+00 -3.447444016688546742e-16 -7.177818358761128066e-17
